<svg width="" height="" viewBox="0 0 800 800" fill="currentColor" xmlns="http://www.w3.org/2000/svg">
<path d="M696.313 172.62V549.287C696.313 615.287 642.647 668.953 576.647 668.953C510.98 668.953 456.98 615.287 456.98 549.287C456.98 483.62 510.98 429.953 576.647 429.953C604.647 429.953 629.647 439.62 649.98 455.62V257.287L342.98 344.62V613.62C342.98 679.62 288.979 733.287 223.312 733.287C157.312 733.287 103.646 679.62 103.646 613.62C103.646 547.953 157.312 494.287 223.312 494.287C250.979 494.287 275.979 503.953 296.313 519.62V224.953C296.313 175.953 325.979 137.953 372.98 125.287L565.647 72.62C604.647 61.9533 637.647 65.62 660.98 83.62C684.647 101.287 696.313 131.287 696.313 172.62Z" />
</svg>
